<svg xmlns="http://www.w3.org/2000/svg" viewBox="0 0 128 128" width="128" height="128">
  <!-- Circle background -->
  <circle cx="64" cy="64" r="60" fill="#2563eb" stroke="#1e40af" stroke-width="2"/>
  
  <!-- Tree structure representing the spatial tree -->
  <!-- Root node (large) -->
  <circle cx="64" cy="45" r="4" fill="#ffffff"/>
  
  <!-- Level 1 nodes -->
  <circle cx="44" cy="65" r="3" fill="#e5e7eb"/>
  <circle cx="84" cy="65" r="3" fill="#e5e7eb"/>
  
  <!-- Level 2 nodes -->
  <circle cx="34" cy="80" r="2" fill="#d1d5db"/>
  <circle cx="54" cy="80" r="2" fill="#d1d5db"/>
  <circle cx="74" cy="80" r="2" fill="#d1d5db"/>
  <circle cx="94" cy="80" r="2" fill="#d1d5db"/>
  
  <!-- Level 3 leaf nodes (particles) -->
  <circle cx="28" cy="92" r="1.5" fill="#fbbf24"/>
  <circle cx="40" cy="92" r="1.5" fill="#fbbf24"/>
  <circle cx="48" cy="92" r="1.5" fill="#fbbf24"/>
  <circle cx="60" cy="92" r="1.5" fill="#fbbf24"/>
  <circle cx="68" cy="92" r="1.5" fill="#fbbf24"/>
  <circle cx="80" cy="92" r="1.5" fill="#fbbf24"/>
  <circle cx="88" cy="92" r="1.5" fill="#fbbf24"/>
  <circle cx="100" cy="92" r="1.5" fill="#fbbf24"/>
  
  <!-- Tree connections -->
  <!-- Root to level 1 -->
  <line x1="64" y1="49" x2="44" y2="61" stroke="#94a3b8" stroke-width="1.5"/>
  <line x1="64" y1="49" x2="84" y2="61" stroke="#94a3b8" stroke-width="1.5"/>
  
  <!-- Level 1 to level 2 -->
  <line x1="44" y1="68" x2="34" y2="78" stroke="#94a3b8" stroke-width="1"/>
  <line x1="44" y1="68" x2="54" y2="78" stroke="#94a3b8" stroke-width="1"/>
  <line x1="84" y1="68" x2="74" y2="78" stroke="#94a3b8" stroke-width="1"/>
  <line x1="84" y1="68" x2="94" y2="78" stroke="#94a3b8" stroke-width="1"/>
  
  <!-- Level 2 to particles -->
  <line x1="34" y1="82" x2="28" y2="90" stroke="#94a3b8" stroke-width="0.5"/>
  <line x1="34" y1="82" x2="40" y2="90" stroke="#94a3b8" stroke-width="0.5"/>
  <line x1="54" y1="82" x2="48" y2="90" stroke="#94a3b8" stroke-width="0.5"/>
  <line x1="54" y1="82" x2="60" y2="90" stroke="#94a3b8" stroke-width="0.5"/>
  <line x1="74" y1="82" x2="68" y2="90" stroke="#94a3b8" stroke-width="0.5"/>
  <line x1="74" y1="82" x2="80" y2="90" stroke="#94a3b8" stroke-width="0.5"/>
  <line x1="94" y1="82" x2="88" y2="90" stroke="#94a3b8" stroke-width="0.5"/>
  <line x1="94" y1="82" x2="100" y2="90" stroke="#94a3b8" stroke-width="0.5"/>
  
  <!-- Force vectors (subtle arrows) -->
  <defs>
    <marker id="arrowhead" markerWidth="4" markerHeight="3" 
     refX="0" refY="1.5" orient="auto">
      <polygon points="0 0, 4 1.5, 0 3" fill="#10b981" opacity="0.6"/>
    </marker>
  </defs>
  
  <!-- Small force arrows between some particles -->
  <line x1="40" y1="92" x2="48" y2="90" stroke="#10b981" stroke-width="0.8" 
        marker-end="url(#arrowhead)" opacity="0.6"/>
  <line x1="80" y1="92" x2="72" y2="90" stroke="#10b981" stroke-width="0.8" 
        marker-end="url(#arrowhead)" opacity="0.6"/>
</svg>